<svg width="24" height="24" viewBox="0 0 24 24" fill="none" xmlns="http://www.w3.org/2000/svg">
<g id="Search results for Drop down - Flaticon-11 1" opacity="0.8" clip-path="url(#clip0_2773_4779)">
<g id="Group">
<path id="Vector" d="M23.1019 5.89563L11.9935 17.0051L0.885139 5.89563C0.677904 5.69544 0.347608 5.70121 0.147416 5.90845C-0.0478365 6.11064 -0.0478365 6.43116 0.147416 6.6333L11.6252 18.1111C11.8289 18.3147 12.1592 18.3147 12.3629 18.1111L23.8407 6.6333C24.0479 6.43311 24.0537 6.10287 23.8535 5.89558C23.6533 5.68835 23.3231 5.68262 23.1158 5.88277C23.1114 5.88697 23.1072 5.89123 23.103 5.89558L23.1019 5.89563Z" fill="#FFC107"/>
<path id="Vector_2" d="M11.9936 18.2645C11.925 18.2646 11.8571 18.2512 11.7938 18.2251C11.7304 18.1989 11.6728 18.1605 11.6242 18.1121L0.146458 6.63433C-0.0537348 6.4271 -0.0479633 6.0968 0.159272 5.89661C0.36147 5.70136 0.681983 5.70136 0.884132 5.89661L11.9936 17.005L23.102 5.89558C23.3022 5.68835 23.6324 5.68262 23.8397 5.88277C24.0469 6.08296 24.0526 6.41321 23.8525 6.62049C23.8483 6.62484 23.844 6.6291 23.8397 6.63331L12.362 18.1111C12.2643 18.209 12.1319 18.2641 11.9936 18.2645Z" fill="white"/>
</g>
</g>
<defs>
<clipPath id="clip0_2773_4779">
<rect width="24" height="24" fill="white"/>
</clipPath>
</defs>
</svg>
