<svg width="248" height="57" viewBox="0 0 248 57" fill="none" xmlns="http://www.w3.org/2000/svg">
<g style="mix-blend-mode:hard-light">
<mask id="path-1-inside-1_2737_4645" fill="white">
<path d="M246.277 50.9127L246.277 2.67029e-05L248 2.66995e-05L248 56.0142L246.277 50.9127Z"/>
</mask>
<path d="M246.277 50.9127L242.277 50.9127L242.277 51.5697L242.487 52.1921L246.277 50.9127ZM246.277 2.67029e-05L246.277 -3.99997L242.277 -3.99997L242.277 2.67107e-05L246.277 2.67029e-05ZM248 2.66995e-05L252 2.66917e-05L252 -3.99997L248 -3.99997L248 2.66995e-05ZM248 56.0142L244.21 57.2936L252 56.0142L248 56.0142ZM250.277 50.9127L250.277 2.66951e-05L242.277 2.67107e-05L242.277 50.9127L250.277 50.9127ZM246.277 4.00003L248 4.00003L248 -3.99997L246.277 -3.99997L246.277 4.00003ZM244 2.67073e-05L244 56.0142L252 56.0142L252 2.66917e-05L244 2.67073e-05ZM251.789 54.7347L250.067 49.6333L242.487 52.1921L244.21 57.2936L251.789 54.7347Z" fill="url(#paint0_linear_2737_4645)" mask="url(#path-1-inside-1_2737_4645)"/>
</g>
<g style="mix-blend-mode:hard-light">
<mask id="path-3-inside-2_2737_4645" fill="white">
<path d="M22.5161 2.00147L247.228 2.00146L247.228 0.00146038L-1.06331e-07 0.00146484L22.5161 2.00147Z"/>
</mask>
<path d="M22.5161 2.00147L22.5161 6.00147L22.3388 6.00147L22.1622 5.98578L22.5161 2.00147ZM247.228 2.00146L251.228 2.00146L251.228 6.00146L247.228 6.00146L247.228 2.00146ZM247.228 0.00146038L247.228 -3.99854L251.228 -3.99854L251.228 0.00146031L247.228 0.00146038ZM-1.06331e-07 0.00146484L-0.353907 3.98578L-3.15137e-07 -3.99854L-1.06331e-07 0.00146484ZM22.5161 -1.99853L247.228 -1.99854L247.228 6.00146L22.5161 6.00147L22.5161 -1.99853ZM243.228 2.00146L243.228 0.00146046L251.228 0.00146031L251.228 2.00146L243.228 2.00146ZM247.228 4.00146L1.02474e-07 4.00146L-3.15137e-07 -3.99854L247.228 -3.99854L247.228 4.00146ZM0.353907 -3.98285L22.87 -1.98285L22.1622 5.98578L-0.353907 3.98578L0.353907 -3.98285Z" fill="url(#paint1_linear_2737_4645)" mask="url(#path-3-inside-2_2737_4645)"/>
</g>
<defs>
<linearGradient id="paint0_linear_2737_4645" x1="246.277" y1="49.4057" x2="262.895" y2="44.2471" gradientUnits="userSpaceOnUse">
<stop stop-color="#007940"/>
<stop offset="0.0001" stop-color="#007940"/>
<stop offset="0.191362" stop-color="#49FB99"/>
<stop offset="0.197795" stop-color="#4BFF9B"/>
<stop offset="0.20351" stop-color="#49E38F"/>
<stop offset="0.208532" stop-color="#49E38F"/>
<stop offset="0.212744" stop-color="#49E38F"/>
<stop offset="0.4375" stop-color="#4AE490"/>
<stop offset="0.727214" stop-color="#4AE490"/>
<stop offset="0.732635" stop-color="#4AE490"/>
<stop offset="0.737177" stop-color="#4AE490"/>
<stop offset="0.74081" stop-color="#4AE490"/>
<stop offset="0.9999" stop-color="#4AE490"/>
</linearGradient>
<linearGradient id="paint1_linear_2737_4645" x1="29.1674" y1="2.00147" x2="30.8841" y2="-19.0159" gradientUnits="userSpaceOnUse">
<stop stop-color="#007940"/>
<stop offset="0.0001" stop-color="#007940"/>
<stop offset="0.191362" stop-color="#49FB99"/>
<stop offset="0.197795" stop-color="#4BFF9B"/>
<stop offset="0.20351" stop-color="#49E38F"/>
<stop offset="0.208532" stop-color="#49E38F"/>
<stop offset="0.212744" stop-color="#49E38F"/>
<stop offset="0.526042" stop-color="#4AE490"/>
<stop offset="0.727214" stop-color="#4AE490"/>
<stop offset="0.732635" stop-color="#4AE490"/>
<stop offset="0.737177" stop-color="#4AE490"/>
<stop offset="0.74081" stop-color="#4AE490"/>
<stop offset="0.744992" stop-color="#4AE490"/>
</linearGradient>
</defs>
</svg>
